M48
METRIC,0000.00
T01C0.486
T02C0.9
%
T01
X+003534Y+002967
X+003788Y+003063
X+004042Y+003063
X+004430Y+003198
X+004684Y+003063
X+004684Y+002620
X+004454Y+002192
X+004429Y+002058
X+004113Y+002058
X+003667Y+001980
X+002676Y+002000
X+002557Y+002684
X+002398Y+003023
X+002518Y+003215
X+002144Y+003163
X+001890Y+003637
X+003123Y+003573
X+003763Y+003573
X+004454Y+003669
X+004779Y+004144
X+005188Y+004188
X+005033Y+004721
X+005033Y+005294
X+004398Y+004341
X+003890Y+004535
X+003781Y+005274
X+002881Y+005071
X+005409Y+003198
X+005409Y+003063
X+005409Y+002871
X+005504Y+002774
X+005409Y+002678
X+005446Y+002058
X+005663Y+002058
X+006049Y+002250
X+006038Y+002582
X+006173Y+002774
X+006269Y+002871
X+006423Y+003160
X+005942Y+003287
X+006557Y+002119
X+006399Y+001942
X+001223Y+002049
T02
X+001890Y+002461
X+002144Y+002461
X+002398Y+002461
X+002652Y+002461
X+002906Y+002461
X+003160Y+002461
X+003414Y+002461
X+003668Y+002461
X+003922Y+002461
X+004176Y+002461
X+004430Y+002461
X+004684Y+002461
X+004938Y+002461
X+005192Y+002461
X+005446Y+002461
X+005700Y+002461
X+005700Y+003985
X+005446Y+003985
X+005192Y+003985
X+004938Y+003985
X+004684Y+003985
X+004430Y+003985
X+004176Y+003985
X+003922Y+003985
X+003668Y+003985
X+003414Y+003985
X+003160Y+003985
X+002906Y+003985
X+002652Y+003985
X+002398Y+003985
X+002144Y+003985
X+001890Y+003985
X+001953Y+004684
X+001699Y+004684
X+001445Y+004684
X+001445Y+005192
X+001699Y+005192
X+001953Y+005192
X+002747Y+005192
X+003001Y+005192
X+003255Y+005192
X+003255Y+004684
X+003001Y+004684
X+002747Y+004684
X+005795Y+004398
X+006049Y+004398
X+006049Y+005160
X+005795Y+005160
T00
M30
