G04 DipTrace 3.0.0.2*
G04 C64cart.GTL*
%MOMM*%
G04 #@! TF.FileFunction,Copper,L1,Top*
G04 #@! TF.Part,Single*
G04 #@! TA.AperFunction,Conductor*
%ADD10C,0.25*%
%ADD13C,0.5*%
G04 #@! TA.AperFunction,CopperBalancing*
%ADD14C,0.635*%
G04 #@! TA.AperFunction,ComponentPad*
%ADD15R,1.5X1.5*%
%ADD16C,1.5*%
%ADD17R,0.6X2.0*%
G04 #@! TA.AperFunction,ComponentPad*
%ADD18C,1.5*%
%ADD19R,1.5X1.3*%
%ADD20R,1.91X7.62*%
G04 #@! TA.AperFunction,ViaPad*
%ADD21C,1.016*%
%FSLAX35Y35*%
G04*
G71*
G90*
G75*
G01*
G04 Top*
%LPD*%
X3534300Y2967000D2*
D10*
Y2409790D1*
X3255050Y2130540D1*
Y1477050D1*
X4454000Y3669350D2*
X3026300D1*
Y2052970D1*
X3001050Y2027720D1*
Y1477050D1*
X2397800Y3985300D2*
X2700300Y4287800D1*
X4169300D1*
Y4670550D1*
X4227300Y4728550D1*
X4848050D1*
X4906050Y4786550D1*
Y5065050D1*
X4169300Y4287800D2*
X4235300Y4221800D1*
X4467050D1*
X4525050Y4279800D1*
Y4525050D1*
X4271050D2*
Y4670550D1*
X4779050D1*
Y4525050D1*
X4042300Y3063300D2*
Y2293790D1*
X3763050Y2014540D1*
Y1477050D1*
X4779050Y4525050D2*
Y4144100D1*
X5408600Y3063300D2*
X6341350D1*
X6399350Y3005300D1*
Y1941850D1*
X4683800Y2620100D2*
Y3063300D1*
X5408600Y3197900D2*
X5446900Y3159600D1*
X6423100D1*
X4429800Y3197900D2*
Y2461300D1*
X5503780Y2774400D2*
X6172500D1*
X5408600Y2870700D2*
X6268800D1*
X4454000Y2192460D2*
X4296300Y2350160D1*
Y3159600D1*
X4238300Y3217600D1*
X3217800D1*
X3159800Y3159600D1*
Y2461300D1*
X4113350Y2057860D2*
X4428750D1*
X3788300Y3063300D2*
Y2272940D1*
X3666750Y2151390D1*
Y1980160D1*
X2676010Y1999850D2*
Y2141190D1*
X2772300Y2237480D1*
Y3716580D1*
X2830300Y3774580D1*
X3609800D1*
X3667800Y3832580D1*
Y3985300D1*
X3255050Y5191800D2*
X3121550D1*
Y5129300D1*
X3063550Y5071300D1*
X2880550D1*
X2392300D1*
X2271800Y5191800D1*
X1953300D1*
X2747050Y4683800D2*
X2626550Y4804300D1*
X1565800D1*
X1445300Y4683800D1*
X2556600Y2684050D2*
X2518300Y2722350D1*
Y3214650D1*
X1445300Y5191800D2*
X1490800D1*
X1611300Y5312300D1*
X2448050D1*
X2568550Y5191800D1*
X2747050D1*
X5408600Y2678100D2*
X6245050D1*
X6303050Y2620100D1*
Y1477050D1*
X6049050Y2250470D2*
Y1477050D1*
X5662600Y2057850D2*
X5795050Y1925400D1*
Y1477050D1*
X5445800Y2057850D2*
Y2461300D1*
X6037900Y2581800D2*
X5566300Y2110200D1*
Y1928800D1*
X5541050Y1903550D1*
Y1477050D1*
X5445800Y3985300D2*
X5312300Y3851800D1*
Y2277630D1*
X5287050Y2252380D1*
Y1477050D1*
X5191800Y3985300D2*
X5058300Y3851800D1*
Y2335640D1*
X5033050Y2310390D1*
Y1477050D1*
X4937800Y3985300D2*
X4804300Y3851800D1*
Y2277650D1*
X4779050Y2252400D1*
Y1477050D1*
X4683800Y3985300D2*
X4550300Y3851800D1*
Y2030980D1*
X4525050Y2005730D1*
Y1477050D1*
X5033050Y4525050D2*
D13*
X5188310D1*
Y4188080D1*
X5795050Y5160050D2*
X6049050D1*
X3890010Y4535500D2*
Y4684300D1*
X4048800D1*
X1223050Y2048550D2*
Y1477050D1*
X6557050Y2119250D2*
Y1477050D1*
X5941600Y3287300D2*
X6474050D1*
X6557050Y3204300D1*
Y2119250D1*
X5188310Y4188080D2*
Y4137280D1*
X5858600D1*
X5941600Y4054280D1*
Y3287300D1*
X4398050Y4341250D2*
D10*
Y4525050D1*
X5033050Y4721350D2*
X4982250Y4670550D1*
X4906050D1*
Y4525050D1*
X5033050Y5293550D2*
Y5065050D1*
X3781220Y5274000D2*
X3800770Y5293550D1*
X5033050D1*
X1699300Y4683800D2*
Y3890580D1*
X1757300Y3832580D1*
X3476300D1*
X3534300Y3890580D1*
Y4047800D1*
X3592300Y4105800D1*
X4594050D1*
X4652050Y4163800D1*
Y4525050D1*
X1889800Y3637300D2*
D13*
X2143800Y3383300D1*
Y3163050D1*
X1889800Y3985300D2*
X2344507Y4440007D1*
X3264470D1*
X3698763Y4874300D1*
X4048800D1*
X2143800Y3163050D2*
X1731050Y2750300D1*
Y1916050D1*
X1477050D1*
Y1477050D1*
X3122600Y3573050D2*
X3763000D1*
X2143800Y3163050D2*
X2284000Y3022850D1*
X2397800D1*
X1731050Y1916050D2*
Y1477050D1*
X4048800Y4874300D2*
X4271050D1*
Y5065050D1*
D21*
X3534300Y2967000D3*
X4454000Y3669350D3*
X4779050Y4144100D3*
X4042300Y3063300D3*
X6399350Y1941850D3*
X5408600Y3063300D3*
X4683800D3*
Y2620100D3*
X6423100Y3159600D3*
X5408600Y3197900D3*
X4429800D3*
X6172500Y2774400D3*
X5503780D3*
X6268800Y2870700D3*
X5408600D3*
X4454000Y2192460D3*
X4428750Y2057860D3*
X4113350D3*
X3666750Y1980160D3*
X3788300Y3063300D3*
X2676010Y1999850D3*
X5408600Y2678100D3*
X6049050Y2250470D3*
X5662600Y2057850D3*
X5445800D3*
X6037900Y2581800D3*
X5188310Y4188080D3*
X3890010Y4535500D3*
X6557050Y2119250D3*
X5941600Y3287300D3*
X1223050Y2048550D3*
X4398050Y4341250D3*
X2880550Y5071300D3*
X2518300Y3214650D3*
X2556600Y2684050D3*
X3781220Y5274000D3*
X5033050Y5293550D3*
Y4721350D3*
X1889800Y3637300D3*
X3763000Y3573050D3*
X3122600D3*
X2397800Y3022850D3*
X2143800Y3163050D3*
X1134150Y5319133D2*
D14*
X1375387D1*
X2560357D2*
X2677137D1*
X2816963D2*
X2931137D1*
X3070963D2*
X3185137D1*
X3324963D2*
X3665730D1*
X5154680D2*
X6646013D1*
X1134150Y5255967D2*
X1312013D1*
X3388337D2*
X3658163D1*
X5151330D2*
X6646013D1*
X1134150Y5192800D2*
X1296633D1*
X3403717D2*
X3689170D1*
X3873270D2*
X4167403D1*
X5136697D2*
X6646013D1*
X1134150Y5129633D2*
X1311020D1*
X3389330D2*
X4167403D1*
X5136697D2*
X6646013D1*
X1134150Y5066467D2*
X1371543D1*
X1519057D2*
X1625543D1*
X1773057D2*
X1879543D1*
X2027057D2*
X2278030D1*
X3328807D2*
X4167403D1*
X5136697D2*
X6646013D1*
X1134150Y5003300D2*
X2344260D1*
X3111517D2*
X3900133D1*
X5136697D2*
X6646013D1*
X1134150Y4940133D2*
X3627777D1*
X5136697D2*
X6646013D1*
X1134150Y4876967D2*
X1526573D1*
X2665777D2*
X3564650D1*
X4992210D2*
X6646013D1*
X1134150Y4813800D2*
X1381093D1*
X2811257D2*
X2936843D1*
X3065257D2*
X3190843D1*
X3319257D2*
X3501397D1*
X5112883D2*
X6646013D1*
X1134150Y4750633D2*
X1313377D1*
X3386973D2*
X3438270D1*
X3711917D2*
X3900133D1*
X5153810D2*
X6646013D1*
X1134150Y4687467D2*
X1296757D1*
X3648787D2*
X4085053D1*
X5152570D2*
X6646013D1*
X1134150Y4624300D2*
X1309657D1*
X3585537D2*
X4083193D1*
X5106683D2*
X6646013D1*
X1134150Y4561133D2*
X1366830D1*
X1523770D2*
X1613140D1*
X3522407D2*
X4083193D1*
X5009697D2*
X6646013D1*
X1134150Y4497967D2*
X1613140D1*
X3459280D2*
X4083193D1*
X5009697D2*
X5646383D1*
X6156667D2*
X6646013D1*
X1134150Y4434800D2*
X1613140D1*
X3396027D2*
X4083193D1*
X5009697D2*
X5646383D1*
X6192880D2*
X6646013D1*
X1134150Y4371633D2*
X1613140D1*
X3332777D2*
X4083193D1*
X5009697D2*
X5646383D1*
X6195237D2*
X6646013D1*
X1134150Y4308467D2*
X1613140D1*
X4865210D2*
X5646383D1*
X6165967D2*
X6646013D1*
X1134150Y4245300D2*
X1613140D1*
X4865210D2*
X6646013D1*
X1134150Y4182133D2*
X1613140D1*
X4897207D2*
X6646013D1*
X1134150Y4118967D2*
X1613140D1*
X4992953D2*
X5136647D1*
X5246953D2*
X5390647D1*
X5500953D2*
X5644647D1*
X5754953D2*
X6646013D1*
X1134150Y4055800D2*
X1613140D1*
X5829740D2*
X6646013D1*
X1134150Y3992633D2*
X1613140D1*
X5848220D2*
X6646013D1*
X1134150Y3929467D2*
X1613140D1*
X5837057D2*
X6646013D1*
X1134150Y3866300D2*
X1616987D1*
X5530100D2*
X5615500D1*
X5784100D2*
X6646013D1*
X1134150Y3803133D2*
X1667587D1*
X5398387D2*
X6646013D1*
X1134150Y3739967D2*
X1825097D1*
X1954503D2*
X2689663D1*
X5398387D2*
X6646013D1*
X1134150Y3676800D2*
X1772140D1*
X2007460D2*
X2686193D1*
X5398387D2*
X6646013D1*
X1134150Y3613633D2*
X1767797D1*
X2050250D2*
X2686193D1*
X5398387D2*
X6646013D1*
X1134150Y3550467D2*
X1803393D1*
X2113500D2*
X2686193D1*
X5398387D2*
X6646013D1*
X1134150Y3487300D2*
X1902983D1*
X2176630D2*
X2686193D1*
X5398387D2*
X6646013D1*
X1134150Y3424133D2*
X1966110D1*
X2232937D2*
X2686193D1*
X5398387D2*
X6646013D1*
X1134150Y3360967D2*
X2029363D1*
X2242360D2*
X2686193D1*
X5398387D2*
X6646013D1*
X1134150Y3297800D2*
X2045240D1*
X2242360D2*
X2428100D1*
X2608480D2*
X2686193D1*
X5477883D2*
X6646013D1*
X1134150Y3234633D2*
X2043503D1*
X2244097D2*
X2395603D1*
X2641097D2*
X2686193D1*
X6520673D2*
X6646013D1*
X1134150Y3171467D2*
X2015350D1*
X2272250D2*
X2402053D1*
X2634523D2*
X2686193D1*
X6546967D2*
X6646013D1*
X1134150Y3108300D2*
X1952220D1*
X2604387D2*
X2686193D1*
X6535803D2*
X6646013D1*
X1134150Y3045133D2*
X1889093D1*
X2604387D2*
X2686193D1*
X6474787D2*
X6646013D1*
X1134150Y2981967D2*
X1825840D1*
X2604387D2*
X2686193D1*
X6485450D2*
X6646013D1*
X1134150Y2918800D2*
X1762713D1*
X2604387D2*
X2686193D1*
X6485450D2*
X6646013D1*
X1134150Y2855633D2*
X1699587D1*
X2604387D2*
X2686193D1*
X6485450D2*
X6646013D1*
X1134150Y2792467D2*
X1642660D1*
X2609720D2*
X2686193D1*
X6485450D2*
X6646013D1*
X1134150Y2729300D2*
X1632490D1*
X6485450D2*
X6646013D1*
X1134150Y2666133D2*
X1632490D1*
X6485450D2*
X6646013D1*
X1134150Y2602967D2*
X1632490D1*
X6485450D2*
X6646013D1*
X1134150Y2539800D2*
X1632490D1*
X5570780D2*
X5876820D1*
X6485450D2*
X6646013D1*
X1134150Y2476633D2*
X1632490D1*
X5593600D2*
X5813567D1*
X6485450D2*
X6646013D1*
X1134150Y2413467D2*
X1632490D1*
X5586157D2*
X5750440D1*
X6485450D2*
X6646013D1*
X1134150Y2350300D2*
X1632490D1*
X5541137D2*
X5687310D1*
X6485450D2*
X6646013D1*
X1134150Y2287133D2*
X1632490D1*
X5531960D2*
X5624060D1*
X6485450D2*
X6646013D1*
X1134150Y2223967D2*
X1632490D1*
X6485450D2*
X6646013D1*
X1134150Y2160800D2*
X1632490D1*
X6485450D2*
X6646013D1*
X1134150Y2097633D2*
X1632490D1*
X6485450D2*
X6646013D1*
X1134150Y2034467D2*
X1632490D1*
X6485450D2*
X6646013D1*
X2642687Y2603233D2*
X2662963Y2603150D1*
X2685017Y2599660D1*
X2692537Y2597537D1*
X2692757Y3722837D1*
X2696417Y3741233D1*
X2701217Y3752820D1*
X1917367Y3752127D1*
X1934990Y3746400D1*
X1951503Y3737987D1*
X1966493Y3727097D1*
X1979597Y3713993D1*
X1990487Y3699003D1*
X1998900Y3682490D1*
X2004627Y3664867D1*
X2007063Y3650487D1*
X2213977Y3443237D1*
X2222490Y3431520D1*
X2229063Y3418617D1*
X2233540Y3404843D1*
X2235807Y3390540D1*
X2236090Y3236827D1*
X2249020Y3216663D1*
X2256110Y3199543D1*
X2260437Y3181523D1*
X2261063Y3176237D1*
X2322277Y3115090D1*
X2344187Y3128070D1*
X2361307Y3135160D1*
X2379327Y3139487D1*
X2397800Y3140940D1*
X2416273Y3139487D1*
X2429863Y3136410D1*
X2417613Y3152947D1*
X2409200Y3169460D1*
X2403473Y3187083D1*
X2400573Y3205383D1*
Y3223917D1*
X2403473Y3242217D1*
X2409200Y3259840D1*
X2417613Y3276353D1*
X2428503Y3291343D1*
X2441607Y3304447D1*
X2456597Y3315337D1*
X2473110Y3323750D1*
X2490733Y3329477D1*
X2509033Y3332377D1*
X2527567D1*
X2545867Y3329477D1*
X2563490Y3323750D1*
X2580003Y3315337D1*
X2594993Y3304447D1*
X2608097Y3291343D1*
X2618987Y3276353D1*
X2627400Y3259840D1*
X2633127Y3242217D1*
X2636027Y3223917D1*
Y3205383D1*
X2633127Y3187083D1*
X2627400Y3169460D1*
X2618987Y3152947D1*
X2608097Y3137957D1*
X2598053Y3127680D1*
X2598090Y2794583D1*
X2618303Y2784737D1*
X2633293Y2773847D1*
X2646397Y2760743D1*
X2657287Y2745753D1*
X2665700Y2729240D1*
X2671427Y2711617D1*
X2674327Y2693317D1*
Y2674783D1*
X2671427Y2656483D1*
X2665700Y2638860D1*
X2657287Y2622347D1*
X2646397Y2607357D1*
X2642633Y2603287D1*
X5587650Y2450137D2*
X5584160Y2428083D1*
X5577260Y2406847D1*
X5567123Y2386953D1*
X5553997Y2368890D1*
X5538210Y2353103D1*
X5525553Y2343590D1*
X5525590Y2182370D1*
X5919867Y2576607D1*
X5921037Y2598367D1*
X5495577Y2598310D1*
X5500253Y2592760D1*
X5520147Y2582623D1*
X5538210Y2569497D1*
X5553997Y2553710D1*
X5567123Y2535647D1*
X5577260Y2515753D1*
X5584160Y2494517D1*
X5587650Y2472463D1*
Y2450137D1*
X5841650Y3974137D2*
X5838160Y3952083D1*
X5831260Y3930847D1*
X5821123Y3910953D1*
X5807997Y3892890D1*
X5792210Y3877103D1*
X5774147Y3863977D1*
X5754253Y3853840D1*
X5733017Y3846940D1*
X5710963Y3843450D1*
X5688637D1*
X5666583Y3846940D1*
X5645347Y3853840D1*
X5625453Y3863977D1*
X5607390Y3877103D1*
X5591603Y3892890D1*
X5578477Y3910953D1*
X5572580Y3920703D1*
X5560917Y3901663D1*
X5546413Y3884687D1*
X5529437Y3870183D1*
X5510397Y3858520D1*
X5489770Y3849973D1*
X5468060Y3844763D1*
X5445800Y3843010D1*
X5423540Y3844763D1*
X5418960Y3845673D1*
X5391983Y3818643D1*
X5392090Y3314903D1*
X5408600Y3315990D1*
X5427073Y3314537D1*
X5445093Y3310210D1*
X5462213Y3303120D1*
X5478010Y3293437D1*
X5492103Y3281403D1*
X5504137Y3267310D1*
X5513820Y3251513D1*
X5519067Y3239387D1*
X6336023Y3239390D1*
X6353690Y3255137D1*
X6369487Y3264820D1*
X6386607Y3271910D1*
X6404627Y3276237D1*
X6423100Y3277690D1*
X6441573Y3276237D1*
X6459593Y3271910D1*
X6476713Y3264820D1*
X6492510Y3255137D1*
X6506603Y3243103D1*
X6518637Y3229010D1*
X6528320Y3213213D1*
X6535410Y3196093D1*
X6539737Y3178073D1*
X6541190Y3159600D1*
X6539737Y3141127D1*
X6535410Y3123107D1*
X6528320Y3105987D1*
X6518637Y3090190D1*
X6506603Y3076097D1*
X6492510Y3064063D1*
X6476713Y3054380D1*
X6465673Y3049533D1*
X6473067Y3035837D1*
X6478157Y3017783D1*
X6479140Y3005300D1*
Y2028863D1*
X6489147Y2018543D1*
X6500037Y2003553D1*
X6509190Y1985037D1*
X6652300Y1985050D1*
Y5382300D1*
X5111060D1*
X5122847Y5370243D1*
X5133737Y5355253D1*
X5142150Y5338740D1*
X5147877Y5321117D1*
X5150777Y5302817D1*
Y5284283D1*
X5147877Y5265983D1*
X5142150Y5248360D1*
X5133737Y5231847D1*
X5130337Y5226760D1*
X5130340Y4897760D1*
X4985853D1*
X4985840Y4829530D1*
X5005483Y4836177D1*
X5023783Y4839077D1*
X5042317D1*
X5060617Y4836177D1*
X5078240Y4830450D1*
X5094753Y4822037D1*
X5109743Y4811147D1*
X5122847Y4798043D1*
X5133737Y4783053D1*
X5142150Y4766540D1*
X5147877Y4748917D1*
X5150777Y4730617D1*
Y4712083D1*
X5147877Y4693783D1*
X5142150Y4676160D1*
X5133737Y4659647D1*
X5122847Y4644657D1*
X5109743Y4631553D1*
X5094753Y4620663D1*
X5078240Y4612250D1*
X5060617Y4606523D1*
X5042317Y4603623D1*
X5025557Y4603553D1*
X5012783Y4596833D1*
X5005940Y4594393D1*
X5003340Y4565340D1*
Y4357760D1*
X4858853D1*
X4858840Y4231240D1*
X4874587Y4213510D1*
X4884270Y4197713D1*
X4891360Y4180593D1*
X4895687Y4162573D1*
X4897140Y4144100D1*
X4895687Y4125627D1*
X4894747Y4120903D1*
X4915540Y4125837D1*
X4937800Y4127590D1*
X4960060Y4125837D1*
X4981770Y4120627D1*
X5002397Y4112080D1*
X5021437Y4100417D1*
X5038413Y4085913D1*
X5052917Y4068937D1*
X5064783Y4049463D1*
X5076683Y4068937D1*
X5091187Y4085913D1*
X5108163Y4100417D1*
X5127203Y4112080D1*
X5147830Y4120627D1*
X5169540Y4125837D1*
X5191800Y4127590D1*
X5214060Y4125837D1*
X5235770Y4120627D1*
X5256397Y4112080D1*
X5275437Y4100417D1*
X5292413Y4085913D1*
X5306917Y4068937D1*
X5318783Y4049463D1*
X5330683Y4068937D1*
X5345187Y4085913D1*
X5362163Y4100417D1*
X5381203Y4112080D1*
X5401830Y4120627D1*
X5423540Y4125837D1*
X5445800Y4127590D1*
X5468060Y4125837D1*
X5489770Y4120627D1*
X5510397Y4112080D1*
X5529437Y4100417D1*
X5546413Y4085913D1*
X5560917Y4068937D1*
X5572783Y4049463D1*
X5584683Y4068937D1*
X5599187Y4085913D1*
X5616163Y4100417D1*
X5635203Y4112080D1*
X5655830Y4120627D1*
X5677540Y4125837D1*
X5699800Y4127590D1*
X5722060Y4125837D1*
X5743770Y4120627D1*
X5764397Y4112080D1*
X5783437Y4100417D1*
X5800413Y4085913D1*
X5814917Y4068937D1*
X5826580Y4049897D1*
X5835127Y4029270D1*
X5840337Y4007560D1*
X5842090Y3985300D1*
X5841650Y3974137D1*
X4173760Y5006527D2*
Y5213897D1*
X3882733Y5213760D1*
X3871017Y5197307D1*
X3857913Y5184203D1*
X3842923Y5173313D1*
X3826410Y5164900D1*
X3808787Y5159173D1*
X3790487Y5156273D1*
X3771953D1*
X3753653Y5159173D1*
X3736030Y5164900D1*
X3719517Y5173313D1*
X3704527Y5184203D1*
X3691423Y5197307D1*
X3680533Y5212297D1*
X3672120Y5228810D1*
X3666393Y5246433D1*
X3663493Y5264733D1*
Y5283267D1*
X3666393Y5301567D1*
X3672120Y5319190D1*
X3680533Y5335703D1*
X3691423Y5350693D1*
X3704527Y5363797D1*
X3719517Y5374687D1*
X3734350Y5382327D1*
X2486230Y5382300D1*
X2499870Y5372973D1*
X2601553Y5271640D1*
X2631933Y5275437D1*
X2646437Y5292413D1*
X2663413Y5306917D1*
X2682453Y5318580D1*
X2703080Y5327127D1*
X2724790Y5332337D1*
X2747050Y5334090D1*
X2769310Y5332337D1*
X2791020Y5327127D1*
X2811647Y5318580D1*
X2830687Y5306917D1*
X2847663Y5292413D1*
X2862167Y5275437D1*
X2874033Y5255963D1*
X2885933Y5275437D1*
X2900437Y5292413D1*
X2917413Y5306917D1*
X2936453Y5318580D1*
X2957080Y5327127D1*
X2978790Y5332337D1*
X3001050Y5334090D1*
X3023310Y5332337D1*
X3045020Y5327127D1*
X3065647Y5318580D1*
X3084687Y5306917D1*
X3101663Y5292413D1*
X3116167Y5275437D1*
X3118807Y5271480D1*
X3137300Y5271590D1*
X3146853Y5284210D1*
X3162640Y5299997D1*
X3180703Y5313123D1*
X3200597Y5323260D1*
X3221833Y5330160D1*
X3243887Y5333650D1*
X3266213D1*
X3288267Y5330160D1*
X3309503Y5323260D1*
X3329397Y5313123D1*
X3347460Y5299997D1*
X3363247Y5284210D1*
X3376373Y5266147D1*
X3386510Y5246253D1*
X3393410Y5225017D1*
X3396900Y5202963D1*
Y5180637D1*
X3393410Y5158583D1*
X3386510Y5137347D1*
X3376373Y5117453D1*
X3363247Y5099390D1*
X3347460Y5083603D1*
X3329397Y5070477D1*
X3309503Y5060340D1*
X3288267Y5053440D1*
X3266213Y5049950D1*
X3243887D1*
X3221833Y5053440D1*
X3200597Y5060340D1*
X3180703Y5070477D1*
X3177620Y5072540D1*
X3115370Y5010627D1*
X3099773Y5000207D1*
X3082177Y4993713D1*
X3063550Y4991510D1*
X3062693Y4991543D1*
X2967680Y4991510D1*
X2949960Y4975763D1*
X2934163Y4966080D1*
X2917043Y4958990D1*
X2899023Y4954663D1*
X2880550Y4953210D1*
X2862077Y4954663D1*
X2844057Y4958990D1*
X2826937Y4966080D1*
X2811140Y4975763D1*
X2797047Y4987797D1*
X2793580Y4991547D1*
X2386040Y4991757D1*
X2367643Y4995417D1*
X2350610Y5003267D1*
X2335880Y5014880D1*
X2335300Y5015510D1*
X2238800Y5111960D1*
X2071007Y5112010D1*
X2061497Y5099390D1*
X2045710Y5083603D1*
X2027647Y5070477D1*
X2007753Y5060340D1*
X1986517Y5053440D1*
X1964463Y5049950D1*
X1942137D1*
X1920083Y5053440D1*
X1898847Y5060340D1*
X1878953Y5070477D1*
X1860890Y5083603D1*
X1845103Y5099390D1*
X1831977Y5117453D1*
X1826080Y5127203D1*
X1814417Y5108163D1*
X1799913Y5091187D1*
X1782937Y5076683D1*
X1763897Y5065020D1*
X1743270Y5056473D1*
X1721560Y5051263D1*
X1699300Y5049510D1*
X1677040Y5051263D1*
X1655330Y5056473D1*
X1634703Y5065020D1*
X1615663Y5076683D1*
X1598687Y5091187D1*
X1584183Y5108163D1*
X1572317Y5127637D1*
X1560417Y5108163D1*
X1545913Y5091187D1*
X1528937Y5076683D1*
X1509897Y5065020D1*
X1489270Y5056473D1*
X1467560Y5051263D1*
X1445300Y5049510D1*
X1423040Y5051263D1*
X1401330Y5056473D1*
X1380703Y5065020D1*
X1361663Y5076683D1*
X1344687Y5091187D1*
X1330183Y5108163D1*
X1318520Y5127203D1*
X1309973Y5147830D1*
X1304763Y5169540D1*
X1303010Y5191800D1*
X1304763Y5214060D1*
X1309973Y5235770D1*
X1318520Y5256397D1*
X1330183Y5275437D1*
X1344687Y5292413D1*
X1361663Y5306917D1*
X1380703Y5318580D1*
X1401330Y5327127D1*
X1423040Y5332337D1*
X1445300Y5334090D1*
X1467560Y5332337D1*
X1489270Y5327127D1*
X1506370Y5320207D1*
X1559480Y5372973D1*
X1572300Y5382300D1*
X1127800D1*
Y1985050D1*
X1415907D1*
X1428830Y1994740D1*
X1441733Y2001317D1*
X1455507Y2005790D1*
X1469810Y2008057D1*
X1638900Y2008340D1*
X1639043Y2757540D1*
X1641310Y2771843D1*
X1645783Y2785617D1*
X1652360Y2798520D1*
X1660873Y2810237D1*
X1822947Y2972713D1*
X2026493Y3176260D1*
X2028973Y3190617D1*
X2034700Y3208240D1*
X2043113Y3224753D1*
X2051560Y3236643D1*
X2051510Y3345240D1*
X1876573Y3520010D1*
X1862233Y3522473D1*
X1844610Y3528200D1*
X1828097Y3536613D1*
X1813107Y3547503D1*
X1800003Y3560607D1*
X1789113Y3575597D1*
X1780700Y3592110D1*
X1774973Y3609733D1*
X1772073Y3628033D1*
Y3646567D1*
X1774973Y3664867D1*
X1780700Y3682490D1*
X1789113Y3699003D1*
X1800003Y3713993D1*
X1813107Y3727097D1*
X1828097Y3737987D1*
X1844610Y3746400D1*
X1865750Y3752827D1*
X1751040Y3753037D1*
X1732643Y3756693D1*
X1715610Y3764547D1*
X1700880Y3776160D1*
X1700297Y3776790D1*
X1638627Y3838760D1*
X1628207Y3854357D1*
X1621713Y3871953D1*
X1619510Y3890580D1*
X1619543Y3891437D1*
X1619510Y4565887D1*
X1598687Y4583187D1*
X1584183Y4600163D1*
X1572317Y4619637D1*
X1560417Y4600163D1*
X1545913Y4583187D1*
X1528937Y4568683D1*
X1509897Y4557020D1*
X1489270Y4548473D1*
X1467560Y4543263D1*
X1445300Y4541510D1*
X1423040Y4543263D1*
X1401330Y4548473D1*
X1380703Y4557020D1*
X1361663Y4568683D1*
X1344687Y4583187D1*
X1330183Y4600163D1*
X1318520Y4619203D1*
X1309973Y4639830D1*
X1304763Y4661540D1*
X1303010Y4683800D1*
X1304763Y4706060D1*
X1309973Y4727770D1*
X1318520Y4748397D1*
X1330183Y4767437D1*
X1344687Y4784413D1*
X1361663Y4798917D1*
X1380703Y4810580D1*
X1401330Y4819127D1*
X1423040Y4824337D1*
X1445300Y4826090D1*
X1467560Y4824337D1*
X1472140Y4823427D1*
X1513980Y4864973D1*
X1529577Y4875393D1*
X1547173Y4881887D1*
X1565800Y4884090D1*
X1566657Y4884057D1*
X2632810Y4883843D1*
X2651207Y4880183D1*
X2668240Y4872333D1*
X2682970Y4860720D1*
X2683550Y4860090D1*
X2720243Y4823450D1*
X2735887Y4825650D1*
X2758213D1*
X2780267Y4822160D1*
X2801503Y4815260D1*
X2821397Y4805123D1*
X2839460Y4791997D1*
X2855247Y4776210D1*
X2868373Y4758147D1*
X2874270Y4748397D1*
X2885933Y4767437D1*
X2900437Y4784413D1*
X2917413Y4798917D1*
X2936453Y4810580D1*
X2957080Y4819127D1*
X2978790Y4824337D1*
X3001050Y4826090D1*
X3023310Y4824337D1*
X3045020Y4819127D1*
X3065647Y4810580D1*
X3084687Y4798917D1*
X3101663Y4784413D1*
X3116167Y4767437D1*
X3128033Y4747963D1*
X3139933Y4767437D1*
X3154437Y4784413D1*
X3171413Y4798917D1*
X3190453Y4810580D1*
X3211080Y4819127D1*
X3232790Y4824337D1*
X3255050Y4826090D1*
X3277310Y4824337D1*
X3299020Y4819127D1*
X3319647Y4810580D1*
X3338687Y4798917D1*
X3355663Y4784413D1*
X3370167Y4767437D1*
X3381830Y4748397D1*
X3390377Y4727770D1*
X3395587Y4706060D1*
X3396067Y4702030D1*
X3638827Y4944477D1*
X3650543Y4952990D1*
X3663447Y4959563D1*
X3677220Y4964040D1*
X3691523Y4966307D1*
X3906503Y4966590D1*
X3906510Y5006590D1*
X4173770D1*
X4127963Y4742010D2*
X3906510D1*
Y4782070D1*
X3736880Y4782010D1*
X3324407Y4369830D1*
X3335300Y4367590D1*
X4089487D1*
X4089757Y4676810D1*
X4093417Y4695207D1*
X4101267Y4712240D1*
X4112880Y4726970D1*
X4113510Y4727550D1*
X4127877Y4741967D1*
X5684510Y4540340D2*
X5937340D1*
Y4486140D1*
X5948437Y4498663D1*
X5965413Y4513167D1*
X5984453Y4524830D1*
X6005080Y4533377D1*
X6026790Y4538587D1*
X6049050Y4540340D1*
X6071310Y4538587D1*
X6093020Y4533377D1*
X6113647Y4524830D1*
X6132687Y4513167D1*
X6149663Y4498663D1*
X6164167Y4481687D1*
X6175830Y4462647D1*
X6184377Y4442020D1*
X6189587Y4420310D1*
X6191340Y4398050D1*
X6189587Y4375790D1*
X6184377Y4354080D1*
X6175830Y4333453D1*
X6164167Y4314413D1*
X6149663Y4297437D1*
X6132687Y4282933D1*
X6113647Y4271270D1*
X6093020Y4262723D1*
X6071310Y4257513D1*
X6049050Y4255760D1*
X6026790Y4257513D1*
X6005080Y4262723D1*
X5984453Y4271270D1*
X5965413Y4282933D1*
X5948437Y4297437D1*
X5937367Y4310060D1*
X5937340Y4255760D1*
X5652760D1*
Y4540340D1*
X5684510D1*
D15*
X1889800Y2461300D3*
D16*
X2143800D3*
X2397800D3*
X2651800D3*
X2905800D3*
X3159800D3*
X3413800D3*
X3667800D3*
X3921800D3*
X4175800D3*
X4429800D3*
X4683800D3*
X4937800D3*
X5191800D3*
X5445800D3*
X5699800D3*
Y3985300D3*
X5445800D3*
X5191800D3*
X4937800D3*
X4683800D3*
X4429800D3*
X4175800D3*
X3921800D3*
X3667800D3*
X3413800D3*
X3159800D3*
X2905800D3*
X2651800D3*
X2397800D3*
X2143800D3*
X1889800D3*
D17*
X4271050Y4525050D3*
X4398050D3*
X4525050D3*
X4652050D3*
X4779050D3*
X4906050D3*
X5033050D3*
Y5065050D3*
X4906050D3*
X4779050D3*
X4652050D3*
X4525050D3*
X4398050D3*
X4271050D3*
D18*
X1445300Y4683800D3*
Y5191800D3*
X1699300Y4683800D3*
Y5191800D3*
X1953300Y4683800D3*
Y5191800D3*
X2747050Y4683800D3*
Y5191800D3*
X3001050Y4683800D3*
Y5191800D3*
X3255050Y4683800D3*
Y5191800D3*
D19*
X4048800Y4874300D3*
Y4684300D3*
D20*
X1223050Y1477050D3*
X1477050D3*
X1731050D3*
X1985050D3*
X2239050D3*
X2493050D3*
X2747050D3*
X3001050D3*
X3255050D3*
X3509050D3*
X3763050D3*
X4017050D3*
X4271050D3*
X4525050D3*
X4779050D3*
X5033050D3*
X5287050D3*
X5541050D3*
X5795050D3*
X6049050D3*
X6303050D3*
X6557050D3*
D15*
X5795050Y4398050D3*
D18*
X6049050D3*
Y5160050D3*
X5795050D3*
G36*
X2778844Y2143840D2*
X2968957D1*
D1*
X2778844D1*
G37*
G36*
X1413385Y1096007D2*
X1604075D1*
D1*
X1413385D1*
G37*
G36*
X2175569D2*
X2366260D1*
D1*
X2175569D1*
G37*
G36*
X2937175D2*
X3127866D1*
D1*
X2937175D1*
G37*
G36*
X3699359D2*
X3890050D1*
D1*
X3699359D1*
G37*
G36*
X4715220D2*
X4905910D1*
D1*
X4715220D1*
G37*
G36*
X5477404D2*
X5668094D1*
D1*
X5477404D1*
G37*
G36*
X6239588D2*
X6430279D1*
D1*
X6239588D1*
G37*
M02*
