G04 DipTrace 3.0.0.2*
G04 C64cart.GBS*
%MOMM*%
G04 #@! TF.FileFunction,Soldermask,Bot*
G04 #@! TF.Part,Single*
%ADD27R,2.114X7.824*%
%ADD29R,1.704X1.504*%
%ADD31C,1.704*%
%ADD35C,1.704*%
%ADD37R,1.704X1.704*%
%FSLAX35Y35*%
G04*
G71*
G90*
G75*
G01*
G04 BotMask*
%LPD*%
D37*
X1889800Y2461300D3*
D35*
X2143800D3*
X2397800D3*
X2651800D3*
X2905800D3*
X3159800D3*
X3413800D3*
X3667800D3*
X3921800D3*
X4175800D3*
X4429800D3*
X4683800D3*
X4937800D3*
X5191800D3*
X5445800D3*
X5699800D3*
Y3985300D3*
X5445800D3*
X5191800D3*
X4937800D3*
X4683800D3*
X4429800D3*
X4175800D3*
X3921800D3*
X3667800D3*
X3413800D3*
X3159800D3*
X2905800D3*
X2651800D3*
X2397800D3*
X2143800D3*
X1889800D3*
D31*
X1445300Y4683800D3*
Y5191800D3*
X1699300Y4683800D3*
Y5191800D3*
X1953300Y4683800D3*
Y5191800D3*
X2747050Y4683800D3*
Y5191800D3*
X3001050Y4683800D3*
Y5191800D3*
X3255050Y4683800D3*
Y5191800D3*
D29*
X2143800Y2874050D3*
Y2684050D3*
X1858050Y3350300D3*
Y3160300D3*
X2397800Y2874050D3*
Y2684050D3*
X2651800Y3763050D3*
Y3573050D3*
X2905800Y3763050D3*
Y3573050D3*
X3921800Y3763050D3*
Y3573050D3*
X2143800Y3763050D3*
Y3573050D3*
D27*
X1223050Y1477050D3*
X1477050D3*
X1731050D3*
X1985050D3*
X2239050D3*
X2493050D3*
X2747050D3*
X3001050D3*
X3255050D3*
X3509050D3*
X3763050D3*
X4017050D3*
X4271050D3*
X4525050D3*
X4779050D3*
X5033050D3*
X5287050D3*
X5541050D3*
X5795050D3*
X6049050D3*
X6303050D3*
X6557050D3*
D37*
X5795050Y4398050D3*
D31*
X6049050D3*
Y5160050D3*
X5795050D3*
M02*
